<?xml version="1.0" encoding="UTF-8"?>
<svg xmlns="http://www.w3.org/2000/svg" width="151" height="64" viewBox="0 0 151 64" fill="none">
  <g clip-path="url(#clip0_345_109)">
    <path d="M150.32 0H0.319824V63.0617H150.32V0Z" fill="#007C43"></path>
    <path d="M145.946 4.3573H91.5986V58.7044H145.946V4.3573Z" fill="white"></path>
    <path d="M139.053 32.404C139.887 33.0133 140.748 33.4593 140.748 34.4329C140.748 34.7154 140.387 34.9912 139.58 34.9912C138.971 34.9912 138.304 34.8244 137.997 34.375C137.749 34.0414 138.11 33.5955 137.885 33.2653C137.718 32.9861 137.33 33.1257 137.078 32.9861C136.772 32.8193 136.745 32.6797 136.55 32.2644C136.329 31.764 135.577 30.93 134.688 30.0415C133.94 29.2926 133.133 28.9046 132.772 28.9318C132.517 28.959 132.435 28.959 132.186 28.959C131.546 28.959 130.992 29.5718 130.076 29.9598C129.439 30.2356 129.075 30.4058 128.66 30.4602L128.52 30.627L129.354 30.5998C130.13 30.5998 131.162 30.4875 131.938 30.4875C132.714 30.4875 133.136 31.2092 133.443 31.9581C134.055 33.4865 134.971 35.6822 136.053 37.517C136.581 38.3783 137.024 38.9331 137.024 39.9952C137.024 40.3288 136.996 40.7714 136.55 40.7714C135.941 40.7714 134.385 40.1314 134.385 39.437C134.385 38.9059 134.801 38.6846 134.801 38.157C134.801 37.8234 134.3 37.8813 134.191 37.5749C133.803 35.9375 133.33 34.3205 132.411 33.3504C131.938 32.8499 131.883 32.6287 131.41 32.6287C131.158 32.6287 130.91 32.6831 130.685 32.7683C129.409 33.2414 127.713 34.661 125.603 35.2975C124.796 35.546 124.66 35.0763 123.826 35.2431H123.88C123.21 35.3826 122.682 35.7707 121.766 36.0192C120.49 36.38 118.294 36.5468 116.544 36.3256C115.295 36.1588 113.681 35.9103 112.987 35.9375C112.459 37.466 111.322 39.4676 109.654 40.2471C108.766 40.6352 108.487 41.1901 108.766 42.1909C109.1 43.4402 110.209 44.3593 110.791 45.4146C111.319 46.3303 112.18 47.7771 113.096 48.2503C114.012 48.7201 114.57 49.4145 114.57 49.9966C114.57 50.2757 114.454 50.4425 114.178 50.4425H112.347C112.068 50.4425 111.928 50.2757 111.874 50.1634C111.625 49.6936 111.792 49.2477 111.459 48.8324C111.207 48.526 111.013 48.6111 110.706 48.3626C110.151 47.835 110.567 47.5286 110.151 46.8614C108.984 45.03 108.483 44.5874 107.513 43.2768C106.958 42.5824 106.291 42.2488 106.291 41.3331C106.291 40.2233 107.401 40.0293 107.374 38.9127C106.652 39.4438 105.818 39.8591 104.538 40.0293C104.371 40.0565 103.925 40.3901 103.731 40.6114C103.289 41.0573 103.122 41.4999 103.064 42.1671C102.924 43.6683 102.621 45.1968 102.815 46.6946C103.064 47.6716 103.234 48.0018 104.038 48.5294C104.538 48.863 105.12 49.3328 105.178 50.0272C105.178 50.2213 105.123 50.4425 104.844 50.4425H102.87C102.676 50.4425 102.509 50.303 102.455 50.1906C102.233 49.8026 102.373 49.5234 102.288 49.0809C102.094 48.1652 101.066 48.2196 101.066 47.2767C101.066 46.9942 101.233 46.6333 101.26 46.0512C101.314 44.7747 101.706 42.7185 101.314 40.2199C101.147 38.7697 102.649 38.7153 103.425 37.4387C103.898 36.7171 103.758 37.0234 104.034 36.4958C104.313 35.9409 104.259 35.5528 104.228 35.2192C104.228 34.8005 103.809 33.9086 104.089 32.1044C104.201 31.2977 104.589 30.4943 105.117 29.7998C105.117 29.7726 105.117 29.6603 104.95 29.6603C104.174 29.7147 104.174 29.5207 103.646 29.5207C103.146 29.5207 102.758 29.936 102.676 30.1573C102.424 30.0449 102.315 29.7692 102.315 29.6024C102.315 29.3233 102.37 29.0748 102.649 28.7956C102.761 28.6833 102.649 28.6288 102.509 28.6288C101.896 28.6288 101.314 29.3777 101.175 29.9054C100.814 29.8509 100.787 29.3777 100.62 29.3777C100.453 29.3777 100.341 29.6296 100.341 29.8781C100.341 31.6551 103.231 32.0432 103.231 34.3784C103.231 37.0745 99.9798 36.5196 99.9798 37.4932C99.9798 37.6872 100.119 37.854 100.371 37.9664C100.259 38.2149 99.9798 38.3272 99.6768 38.3272C98.9552 38.3272 98.4275 37.7996 98.4275 37.0779C98.4275 35.6039 100.399 35.5767 100.399 34.4635C100.399 33.9359 100.065 33.7691 99.7585 33.5206C97.8692 32.1861 96.814 30.8551 96.814 28.6595C96.814 26.297 98.4514 24.4894 100.593 24.4894C103.704 24.4894 103.786 28.0739 106.625 28.3803C107.68 27.6586 108.929 27.2399 110.151 27.2399C111.986 27.2399 112.79 27.7131 114.737 27.7131C115.516 27.7131 116.82 27.4918 118.376 26.4366C118.958 26.0485 119.21 25.9668 119.737 25.4902C120.96 24.4315 122.1 22.3788 122.1 20.9048V20.9865C122.1 20.5133 121.988 20.2376 121.766 20.2376C121.099 20.2376 120.517 20.8504 119.85 21.4869C119.434 21.9295 120.071 22.1235 119.128 22.6546C118.794 22.8214 118.406 22.515 118.046 22.515C117.297 22.515 116.963 21.6265 116.963 20.8504C116.963 20.4623 117.269 20.35 117.436 19.9891C117.828 19.2368 117.797 18.9611 118.158 18.2122C118.379 17.7117 118.771 17.3781 118.743 17.0173C118.743 16.8777 118.631 16.7926 118.631 16.6565C118.631 15.9041 119.632 15.4037 119.632 14.6548C119.632 14.2395 119.159 14.0421 119.046 13.7119C118.934 13.3783 119.019 13.2966 119.019 13.2966C119.046 13.2421 119.104 13.2115 119.159 13.2115C119.547 13.2115 119.714 13.6302 120.074 13.8514C120.102 13.351 119.935 13.2387 119.935 12.8813C119.935 12.6872 119.908 12.3809 120.102 12.3809C120.35 12.3809 120.323 12.7145 120.548 12.8813C120.827 13.1025 121.075 13.0753 121.382 13.2693C121.77 13.5212 121.991 13.9366 122.131 13.9638C122.519 14.0183 122.631 13.5485 122.437 13.2693C122.879 13.2421 123.325 13.6029 123.911 13.6029C124.827 13.6029 125.133 13.8514 125.3 13.991C125.885 14.4914 125.994 14.8795 126.634 14.8795C126.968 14.8795 127.135 14.6004 127.22 14.4914C127.666 14.825 127.693 15.659 127.22 16.3535C127.414 16.9424 128.248 16.9969 128.636 17.2726C129.024 17.5517 128.969 17.6879 129.245 17.8581C129.466 17.9977 129.664 17.9705 129.827 17.8581C130.021 18.6343 129.354 19.3287 128.551 19.441C128.578 20.4419 129.633 21.0512 130.106 21.3031C129.827 21.9159 129.327 22.1099 128.884 22.2188C129.024 22.8316 129.691 23.72 129.358 24.5234C129.051 24.3873 128.609 24.5234 128.609 24.9694C128.609 25.4698 129.245 25.7251 128.581 26.0859C128.275 26.2527 128.221 26.6953 128.775 27.114C129.497 26.9199 130.192 26.9472 130.998 26.9472C131.499 26.9472 132.166 26.8076 132.608 26.8076C133.446 26.8076 133.946 27.1412 134.556 27.8084C136.084 29.473 137.473 31.2262 139.056 32.421L139.053 32.404Z" fill="black"></path>
    <path d="M97.8184 27.9616C98.152 27.9616 98.7613 26.1268 100.014 26.1268C100.375 26.1268 100.46 26.2663 100.46 26.4025C100.46 26.6544 100.045 26.8757 100.045 27.2093C100.045 27.2637 100.072 27.3489 100.184 27.3489C100.491 27.3489 100.712 26.6816 101.961 26.6816C102.295 26.6816 102.574 26.7089 102.877 26.794C103.016 26.8212 103.296 26.9608 103.183 26.5727C102.877 25.7115 101.934 24.9013 100.6 24.9013C99.2651 24.9013 97.8762 26.0995 97.7094 27.5429C97.6822 27.7948 97.6822 27.9616 97.8218 27.9616H97.8184Z" fill="#6D6E70"></path>
    <path d="M120.881 16.5135C120.52 16.3705 120.466 16.1765 120.575 15.734C120.657 15.2608 120.684 15.0667 120.463 15.0123C120.269 14.9578 120.017 15.0667 119.768 15.3459C119.547 15.6523 119.183 16.0131 119.074 16.3161C118.961 16.7075 119.435 16.6531 119.101 17.293C118.515 18.3483 118.379 18.5696 118.1 19.3219C117.852 20.0981 117.658 20.2104 117.518 20.4623C117.351 20.6836 117.739 20.7142 118.185 20.5746C118.658 20.4078 118.686 20.9627 118.519 21.3508C118.379 21.6299 118.492 21.7389 118.88 21.4359C119.241 21.1567 118.686 20.9355 118.825 20.047C118.965 19.2402 119.132 18.7977 119.632 17.9909C120.047 17.2965 120.408 16.796 121.13 17.0445C121.409 17.1841 121.269 16.6837 120.881 16.5169V16.5135Z" fill="#6D6E70"></path>
    <path d="M136.333 40.1076C136.472 40.1076 136.499 39.9135 136.499 39.7433C136.499 39.3553 136.278 38.7697 135.972 38.5212C135.89 39.1068 135.611 39.4948 135.611 39.7433C135.611 39.9408 136.138 40.1076 136.333 40.1076Z" fill="#6D6E70"></path>
    <path d="M139.774 34.5146C139.996 34.5146 140.329 34.4295 140.329 34.2627C140.329 33.9291 139.829 33.347 139.386 33.2074C139.693 33.7895 139.386 34.5146 139.774 34.5146Z" fill="#6D6E70"></path>
    <path d="M124.524 26.9336C127.662 28.3769 127.468 31.0151 127.748 30.3479C127.86 30.0722 128.275 28.765 127.162 27.5157C126.301 26.5148 125.967 26.7668 126.301 25.9327C127.662 22.6239 128.524 17.6232 124.439 15.8701C123.966 15.6761 123.574 15.6761 123.574 15.7578C123.574 15.8395 124.02 15.979 124.551 16.3399C127.274 18.1475 126.44 23.0665 123.938 25.4562C123.101 26.2663 123.492 26.4604 124.52 26.9302L124.524 26.9336Z" fill="#6D6E70"></path>
    <path d="M113.794 49.966C114.015 49.966 113.903 49.6324 113.821 49.4928C113.627 49.1592 113.266 48.9379 112.96 48.7983C113.042 49.1319 113.072 49.9626 113.406 49.9626H113.794V49.966Z" fill="#6D6E70"></path>
    <path d="M104.317 49.966C104.538 49.966 104.371 49.6323 104.289 49.4928C104.095 49.1592 103.704 48.9651 103.401 48.8256C103.486 49.1592 103.54 49.9625 103.874 49.9625H104.32L104.317 49.966Z" fill="#6D6E70"></path>
    <path d="M115.796 31.1547C117.518 30.9606 117.797 30.5726 118.1 29.2654C118.24 28.656 118.686 28.0161 119.074 27.5974C119.322 27.3182 119.574 27.097 119.823 26.6816C119.908 26.5148 119.962 26.3753 119.823 26.4331C119.629 26.5727 119.047 26.9608 118.795 27.1548C117.573 28.0161 115.711 28.4314 114.962 28.4314C113.375 28.4314 112.014 27.9616 110.57 27.9616C106.237 27.9616 104.623 31.3521 104.845 33.3231C104.872 33.6295 104.926 33.6567 105.039 33.6567C105.345 33.6567 105.597 32.4891 106.679 31.4611C108.262 29.9598 109.985 29.0986 112.429 29.0986C114.206 29.0986 114.931 29.6807 114.931 29.902C114.931 30.3445 114.179 30.3751 114.233 30.8211C114.233 30.9607 114.652 31.2943 115.792 31.1547H115.796Z" fill="#6D6E70"></path>
    <path d="M36.6862 18.9951C40.8528 18.9951 44.1617 22.3073 44.1617 26.4774C44.1617 30.6475 40.8937 34.0005 36.6862 34.0005C32.4787 34.0005 29.2107 30.6883 29.2107 26.4774C29.2107 22.2665 32.5195 18.9951 36.6862 18.9951ZM60.5866 19.1585V33.7963H65.2027C69.3693 33.7963 72.719 30.6883 72.719 26.4774C72.719 22.2665 69.3285 19.1585 65.2027 19.1585H60.5866ZM36.6862 31.6721C39.5457 31.6721 41.629 29.3403 41.629 26.4808C41.629 23.6213 39.5457 21.3269 36.6862 21.3269C33.8267 21.3269 31.7025 23.6588 31.7434 26.4808C31.7434 29.3437 33.8267 31.6721 36.6862 31.6721ZM76.7223 20.0197C75.701 20.755 75.17 21.8171 75.17 23.0869C75.17 25.5412 77.0899 26.6442 79.0507 27.2569C80.8072 27.8288 82.237 28.2782 82.237 29.7113C82.237 31.1445 80.8889 31.7164 79.6226 31.7164C77.9886 31.7164 76.4363 31.0628 75.4968 30.45L75.4151 30.4092V32.9044H75.4559C76.3138 33.3946 77.9069 33.9665 79.6634 33.9665C82.237 33.9665 84.6471 32.2917 84.6471 29.633C84.6471 27.1786 82.9723 25.994 80.6438 25.2587C78.2337 24.5234 77.4984 23.9924 77.4984 23.0494C77.4984 21.7014 78.8873 21.2895 80.1536 21.2895C81.134 21.2895 82.4412 21.5346 83.6259 22.1065H83.6667V19.7746C82.5638 19.2844 81.3791 19.0393 79.9902 19.0393C78.7647 19.0393 77.5801 19.407 76.7223 20.0197ZM65.2027 21.5312C68.103 21.5312 70.1455 23.6588 70.1455 26.4774C70.1455 29.296 68.103 31.4644 65.2027 31.4644H63.0376V21.5278H65.2027V21.5312ZM55.8072 19.1585L51.8857 25.9055L47.6781 19.1585H44.7778L50.4559 28.0705L46.9837 33.7963H49.7615L58.585 19.1585H55.8072ZM19.1208 19.1585V33.7963H28.3528V31.3828H21.6126V19.1585H19.1208ZM7.27441 19.1585V33.7963H16.5064V31.3828H9.76624V19.1585H7.27441Z" fill="white"></path>
    <path d="M8.78924 39.5084H7.271V38.7799H11.0938V39.5084H9.5756V43.7091H8.78584V39.5084H8.78924Z" fill="white"></path>
    <path d="M12.0264 38.7799H14.8824V39.5016H12.8195V40.8599H14.7156V41.5407H12.8195V42.9874H14.8824V43.7091H12.0264V38.7765V38.7799Z" fill="white"></path>
    <path d="M18.2765 43.8113C16.9591 43.8113 15.7915 42.8104 15.7915 41.2411C15.7915 39.6718 16.9591 38.6744 18.2765 38.6744C18.8382 38.6744 19.2705 38.8276 19.6007 39.0046V39.8182C19.2093 39.5663 18.845 39.4131 18.3344 39.4131C17.4459 39.4131 16.5983 40.1007 16.5983 41.2411C16.5983 42.3815 17.4459 43.0623 18.3344 43.0623C18.845 43.0623 19.2093 42.9023 19.6007 42.6504V43.4708C19.2705 43.6513 18.8382 43.801 18.2765 43.801V43.8113Z" fill="white"></path>
    <path d="M23.8728 41.5918H21.4933V43.7125H20.6968V38.7799H21.4933V40.8531H23.8728V38.7799H24.6694V43.7125H23.8728V41.5918Z" fill="white"></path>
    <path d="M60.8864 43.8113C59.569 43.8113 58.4014 42.8104 58.4014 41.2411C58.4014 39.6718 59.569 38.6744 60.8864 38.6744C61.4515 38.6744 61.8804 38.8276 62.2106 39.0046V39.8182C61.8191 39.5663 61.4549 39.4131 60.9443 39.4131C60.0558 39.4131 59.2082 40.1007 59.2082 41.2411C59.2082 42.3815 60.0558 43.0623 60.9443 43.0623C61.4549 43.0623 61.8191 42.9023 62.2106 42.6504V43.4708C61.8804 43.6513 61.4481 43.801 60.8864 43.801V43.8113Z" fill="white"></path>
    <path d="M63.3066 38.7799H66.1627V39.5016H64.0998V40.8599H65.9959V41.5407H64.0998V42.9874H66.1627V43.7091H63.3066V38.7765V38.7799Z" fill="white"></path>
    <path d="M74.0842 39.5084H72.5659V38.7799H76.3888V39.5084H74.8705V43.7091H74.0808V39.5084H74.0842Z" fill="white"></path>
    <path d="M81.791 38.7799H84.6471V39.5016H82.5842V40.8599H84.4803V41.5407H82.5842V42.9874H84.6471V43.7091H81.791V38.7765V38.7799Z" fill="white"></path>
    <path d="M37.4658 38.7833V43.7125H40.5772V42.8989H38.3066V38.7799H37.4658V38.7833Z" fill="white"></path>
    <path d="M77.3179 38.7799V43.7091H78.1451V41.7688H78.8191L79.8948 43.7091H80.8309L79.6463 41.6428C80.225 41.4216 80.5824 40.9007 80.5824 40.2812C80.5824 39.3042 79.9084 38.7799 78.9314 38.7799H77.3213H77.3179ZM78.8872 39.5527C79.3842 39.5527 79.7416 39.7739 79.7416 40.2812C79.7416 40.7646 79.4114 41.0096 78.928 41.0096H78.1417V39.5493H78.8838L78.8872 39.5527Z" fill="white"></path>
    <path d="M29.3913 38.7799V42.2079L26.7054 38.7799H25.9463V43.7091H26.7735V40.1144L29.5683 43.7091H30.2015V38.7799H29.3879H29.3913Z" fill="white"></path>
    <path d="M70.8195 38.7799V42.2079L68.1336 38.7799H67.3745V43.7091H68.2017V40.1144L70.9965 43.7091H71.6297V38.7799H70.8161H70.8195Z" fill="white"></path>
    <path d="M50.49 38.9195C50.2415 38.8378 49.8296 38.7391 49.3871 38.7391C47.8586 38.7391 46.7148 39.7569 46.7148 41.2445C46.7148 42.7321 47.7327 43.7772 49.3462 43.7772C49.7581 43.7772 50.296 43.6819 50.599 43.5968H50.6126V41.105H49.799V42.9636C49.6901 42.9772 49.496 43.0045 49.3156 43.0045C48.2705 43.0045 47.5659 42.2045 47.5659 41.2411C47.5523 40.2914 48.2944 39.5322 49.3837 39.5322C49.7411 39.5322 50.1564 39.6276 50.4866 39.7399V38.9127L50.49 38.9195Z" fill="white"></path>
    <path d="M33.8369 38.7255C35.2565 38.7255 36.356 39.842 36.356 41.2445C36.356 42.647 35.2531 43.7772 33.8369 43.7772C32.4208 43.7772 31.3179 42.6606 31.3179 41.2445C31.3179 39.8284 32.4208 38.7255 33.8369 38.7255ZM33.8369 42.9943C34.8003 42.9943 35.5016 42.2079 35.5016 41.2445C35.5016 40.2812 34.8003 39.5084 33.8369 39.5084C32.8736 39.5084 32.1553 40.2948 32.1689 41.2445C32.1689 42.2079 32.8702 42.9943 33.8369 42.9943Z" fill="white"></path>
    <path d="M43.3853 38.7255C44.7912 38.7255 45.9043 39.842 45.9043 41.2445C45.9043 42.647 44.8014 43.7772 43.3853 43.7772C41.9692 43.7772 40.8662 42.6606 40.8662 41.2445C40.8662 39.8284 41.9828 38.7255 43.3853 38.7255ZM43.3853 42.9943C44.3486 42.9943 45.0533 42.2079 45.0533 41.2445C45.0533 40.2812 44.3521 39.5084 43.3853 39.5084C42.4185 39.5084 41.7036 40.2948 41.7207 41.2445C41.7207 42.2079 42.4219 42.9943 43.3853 42.9943Z" fill="white"></path>
    <path d="M54.9595 38.7833L53.6387 41.0539L52.2192 38.7833H51.2422L53.1553 41.7858L51.9843 43.7125H52.9204L55.8956 38.7833H54.9595Z" fill="white"></path>
  </g>
  <defs>
    <clipPath id="clip0_345_109">
      <rect width="150" height="63.0617" fill="white" transform="translate(0.319824)"></rect>
    </clipPath>
  </defs>
</svg>
